# xmcd
#
# Track frame offsets: 
#        150
#        2065
#        15944
#        34528
#        49180
#        82254
#        90039
#        117676
#        131461
#        152819
#        177366
#        200917
#        219850
#        240284
#        264845
#        279469
#
# Disc length: 4028 seconds
#
# Revision: 0
# Processed by: cddbd v1.5.1PL0 Copyright (c) Steve Scherf et al.
# Submitted via: ExactAudioCopy v0.95a5
#
DISCID=c80fba10
DTITLE=John Sugar Kane - Superfunk Oldies Vol.3
DYEAR=2004
DGENRE=Funk
TTITLE0=Double D and Steinski/Lesson 3 Intro.
TTITLE1=Parliament/Up For The Downstroke
TTITLE2=O' Jay's/For The Love of $
TTITLE3=Eddie Kendricks/Keep On Truckin'
TTITLE4=James Brown/The Payback
TTITLE5=Steinski Dance Interlude
TTITLE6=Sugarhill Gang/Rapper's Delight
TTITLE7=West Street Mob/Electric Boogie
TTITLE8=Herbie Hancokc/Rockit Mix
TTITLE9=Mars/Pump Up The Volume
TTITLE10=Grandmaster Flash/White Lines
TTITLE11=Shannon/Let The Music Play
TTITLE12=Michael Jackson/Billy Jean
TTITLE13=Eric. B. And Rakim/Paid In Full Mix Coldcut Mix
TTITLE14=Dazz/Brick
TTITLE15=Kool And The Gang/Funky Stuff
EXTD=
EXTT0=
EXTT1=
EXTT2=
EXTT3=
EXTT4=
EXTT5=
EXTT6=
EXTT7=
EXTT8=
EXTT9=
EXTT10=
EXTT11=
EXTT12=
EXTT13=
EXTT14=
EXTT15=
PLAYORDER=
